<?xml version="1.0" encoding="utf-8"?>
<svg width="327px" height="160px" viewBox="0 0 327 160" version="1.1" xmlns="http://www.w3.org/2000/svg" xmlns:xlink="http://www.w3.org/1999/xlink">
    <g id="logo" stroke="none" stroke-width="1" fill="none" fill-rule="evenodd">
        <g id="logo_gray" fill="#3C3C42" fill-rule="nonzero">
            <path d="M241.4,90.2 L241.4,143.7 L234.7,143.7 L234.7,91.5 C234.7,70.8 223.5,59.3 205,59.3 C187.7,59.3 173.7,73.1 173.7,92.5 L173.7,143.7 L167.2,143.7 L167.2,54.7 L173.7,54.7 L173.7,74.4 C178.5,61.6 191.2,53.2 206,53.2 C228.6,53.2 241.4,68.7 241.4,90.2" id="Shape"></path>
            <path d="M64.5,107.2 C64.5,126.9 48.8,139 30.7,139 C17.9,139 7.5,132.5 7.5,119.7 C7.5,105.4 23,100.4 35.8,100.4 L64.5,100.4 L64.5,107.2 Z M37,53.2 C22.3,53.2 13.3,59.7 8,66.8 L11.2,74 C14.8,66.8 22.4,59.4 37.1,59.4 C54.9,59.4 64.3,70.6 64.3,88.2 L64.3,94.4 L35.5,94.4 C19,94.4 0.7,101.7 0.7,119.9 C0.7,136.7 14.4,145.2 30.5,145.2 C44.5,145.2 57.5,137.7 64.3,124 L64.3,143.7 L71,143.7 L71,87.7 C71,65 57,53.2 37,53.2 Z" id="Shape"></path>
            <polygon id="Shape" points="152.2 52.3 108.4 157.3 114.1 159.7 157.9 54.7 156.2 50.7"></polygon>
            <path d="M119.1,140.1 L71.4,37.5 L67.4,35.9 L65.8,39.9 L115.6,147.4 C116.7,145.1 118.1,142.3 119.1,140.1 Z" id="Shape"></path>
            <polygon id="Shape" points="118.9 154.8 121 159.6 126.6 157.2 122.1 146.9"></polygon>
            <path d="M191.5,2.3 C191.4,1.1 190.4,0.2 189.2,0.2 L185.9,0.2 L185.9,0.8 L185.9,30.9 C185.9,34.7 183.9,36.9 180.5,37.1 L178.5,37.1 L178.5,42 L180.4,42 C185.7,41.9 191.4,38.5 191.4,31.2 L191.4,19.2 L191.5,2.3 Z" id="Shape"></path>
            <path d="M179.7,32.5 C180.9,32.4 181.8,31.4 181.8,30.2 L181.8,27.6 L172.8,27.6 L172.8,2.4 C172.8,1.2 171.8,0.2 170.6,0.1 L167.2,0.1 L167.2,30.4 C167.3,31.6 168.3,32.5 169.5,32.5 L170,32.5 L179.7,32.5 Z" id="Shape"></path>
            <path d="M247.2,20.8 C247.2,16.8 246.8,14 244.6,11.7 C243.6,10.6 241.3,8.9 237.4,8.9 C233.7,8.9 231.4,10.4 230.2,11.7 C228,14 227.6,16.8 227.6,20.8 C227.6,24.9 228,27.7 230.2,30 C231.4,31.3 233.7,32.9 237.4,32.9 C241.4,32.9 243.6,31.1 244.6,30.1 C246.7,27.6 247.2,24.8 247.2,20.8 M240.5,27 C239.7,27.8 238.6,28.2 237.3,28.2 C236,28.2 235,27.8 234.2,27 C232.8,25.6 232.7,23.2 232.7,20.8 C232.7,18.3 232.8,16 234.2,14.6 C235,13.8 236,13.4 237.3,13.4 C238.6,13.4 239.7,13.8 240.5,14.6 C241.9,16 242,18.3 242,20.8 C242,23.2 241.9,25.6 240.5,27" id="Shape"></path>
            <path d="M267.1,11.6 C265.9,10.3 263.6,8.8 259.9,8.8 C256.2,8.8 253.9,10.3 252.7,11.6 C250.5,13.9 250.1,16.7 250.1,20.7 C250.1,24.8 250.5,27.6 252.7,29.9 C253.9,31.2 256.1,32.8 259.9,32.8 C263.7,32.8 265.9,31.3 267.1,30 C269.3,27.7 269.7,24.9 269.7,20.8 C269.7,16.7 269.3,13.9 267.1,11.6 M263,27 C262.2,27.8 261.2,28.2 259.8,28.2 C258.5,28.2 257.5,27.8 256.7,27 C255.3,25.6 255.2,23.2 255.2,20.8 C255.2,18.3 255.3,16 256.7,14.6 C257.5,13.8 258.5,13.4 259.8,13.4 C261.1,13.4 262.2,13.8 263,14.6 C264.4,16 264.5,18.3 264.5,20.8 C264.5,23.2 264.4,25.6 263,27" id="Shape"></path>
            <path d="M287.1,32.5 L293.1,32.5 L284,18.4 L292.3,9.1 L286.2,9.1 L277.5,19.6 L277.5,2.5 C277.5,1.3 276.5,0.2 275.3,0.2 L272.4,0.2 L272.4,30.3 C272.4,31.6 273.4,32.6 274.7,32.6 L277.6,32.6 L277.6,25.6 L280.9,21.9 L287.1,32.5 Z" id="Shape"></path>
            <path d="M221.6,32.5 L222.1,32.5 L224.9,32.5 L224.9,2.5 C224.9,1.3 223.9,0.2 222.7,0.2 L219.3,0.2 L219.3,13.8 L208.3,13.8 L208.3,2.5 C208.3,1.3 207.3,0.2 206.1,0.2 L202.7,0.2 L202.7,30.3 C202.7,31.5 203.7,32.5 205,32.5 L205.5,32.5 L208.3,32.5 L208.3,18.6 L219.3,18.6 L219.3,30.3 C219.3,31.5 220.4,32.5 221.6,32.5" id="Shape"></path>
            <path d="M324.4,14.1 L326.9,14.1 L326.9,9.1 L324.4,9.1 C319.6,9.1 315.7,13 315.7,17.8 L315.7,32.6 L318.5,32.6 C319.8,32.6 320.8,31.5 320.8,30.3 L320.8,29.4 L320.8,17.8 C320.8,15.7 322.4,14.1 324.4,14.1" id="Shape"></path>
            <path d="M313,20 C313,13.2 309,8.8 302.8,8.8 C296.5,8.8 292.7,13.4 292.7,20.8 C292.7,28.8 296.3,32.8 303.5,32.8 C307.7,32.8 309.9,31.5 312.1,29.4 L309,26.4 C307.6,27.7 306.2,28.5 303.5,28.5 C300,28.5 297.7,26.2 297.7,22.6 L297.7,22.2 L312.4,22.2 L312.9,21.7 L312.9,20 L313,20 Z M297.7,19 L297.7,18.5 C297.7,17.3 297.9,16.7 298.3,15.7 C299.1,13.9 300.7,12.9 302.8,12.9 C304.8,12.9 306.5,13.9 307.3,15.7 C307.7,16.6 307.8,17.3 307.9,18.5 L307.9,19 L297.7,19 Z" id="Shape"></path>
            <path d="M252.7,108.4 L252.7,54.7 L259.2,54.7 L259.2,107.1 C259.2,127.6 270.5,139.3 289,139.3 C306.3,139.3 320.3,125.5 320.3,106 L320.3,54.8 L326.8,54.8 L326.8,143.8 L320.3,143.8 L320.3,124.1 C315.5,136.9 302.8,145.4 288,145.4 C265.6,145.4 252.7,129.7 252.7,108.4" id="Shape"></path>
        </g>
    </g>
</svg>